<?xml version="1.0" encoding="utf-8"?>
<svg viewBox="0 171.804 512 340.196" xmlns="http://www.w3.org/2000/svg">
  <path style="fill:#A5B8C4;" d="M459.926,459.885V191.581c0-6.549-5.338-11.859-11.924-11.859H63.998 c-6.586,0-11.924,5.309-11.924,11.859v268.304H459.926z"/>
  <rect x="82.923" y="221.8" style="fill:#E2F7F6;" width="346.154" height="216.127"/>
  <rect x="82.923" y="414.824" style="fill:#B7ED69;" width="346.154" height="23.103"/>
  <rect x="137.927" y="414.824" style="fill:#FFFFFF;" width="291.15" height="23.103"/>
  <path style="fill:#FFBAC5;" d="M256.152,382.433c-2.014,0.005-3.948-0.793-5.373-2.211l-52.46-52.192 c-7.417-7.372-11.512-17.184-11.53-27.627c-0.019-10.446,4.042-20.276,11.429-27.673c7.388-7.405,17.226-11.486,27.694-11.507 c10.47-0.021,20.32,4.03,27.736,11.405l2.305,2.287l2.297-2.297c7.388-7.401,17.222-11.483,27.694-11.503 c10.468-0.021,20.32,4.03,27.737,11.403c7.417,7.373,11.513,17.186,11.533,27.627c0.019,10.446-4.04,20.275-11.429,27.676 l-52.271,52.382C260.093,381.626,258.164,382.431,256.152,382.433z"/>
  <path style="fill:#E6E6E6;" d="M497.871,498.939c0,2.873-2.351,5.224-5.225,5.224H19.354c-2.873,0-5.224-2.351-5.224-5.224v-33.83 c0-2.873,2.351-5.224,5.224-5.224h473.294c2.873,0,5.224,2.351,5.224,5.224v33.83H497.871z"/>
  <path style="opacity:0.1;enable-background:new    ;" d="M79.457,498.939v-33.83c0-2.873,2.351-5.224,5.224-5.224H19.354 c-2.873,0-5.224,2.351-5.224,5.224v33.83c0,2.873,2.351,5.224,5.224,5.224h65.329C81.808,504.163,79.457,501.812,79.457,498.939z"/>
  <path style="fill:#AADDC0;" d="M321.404,476.748c0,2.873-2.351,5.224-5.224,5.224H195.82c-2.873,0-5.224-2.351-5.224-5.224v-11.639 c0-2.873,2.351-5.224,5.224-5.224h120.36c2.873,0,5.224,2.351,5.224,5.224V476.748z"/>
  <rect x="82.923" y="221.8" style="opacity:0.1;enable-background:new    ;" width="21.442" height="216.127"/>
  <g style="opacity:0.1;">
    <path d="M272.474,369.186l-52.46-52.192c-7.417-7.372-11.512-17.184-11.53-27.626c-0.019-10.446,4.042-20.276,11.429-27.673 c0.001-0.001,0.003-0.003,0.005-0.005c-8.189,1.263-15.741,5.069-21.699,11.039c-7.387,7.397-11.448,17.227-11.429,27.673 c0.019,10.442,4.114,20.255,11.53,27.627l52.46,52.192c1.425,1.418,3.359,2.216,5.373,2.211c2.012-0.002,3.941-0.807,5.36-2.23 l10.978-11.001C272.484,369.196,272.479,369.192,272.474,369.186z"/>
  </g>
  <path d="M429.077,213.967H82.923c-4.328,0-7.837,3.508-7.837,7.837v216.129c0,4.329,3.509,7.837,7.837,7.837h346.154 c4.328,0,7.837-3.508,7.837-7.837V221.804C436.914,217.476,433.405,213.967,429.077,213.967z M421.24,229.64v177.347H90.76V229.64 H421.24z M90.76,422.661h39.33v7.434H90.76V422.661z M145.763,430.096v-7.434H421.24v7.434H145.763z"/>
  <path d="M245.25,385.775c2.87,2.857,6.836,4.494,10.871,4.494c0.013,0,0.025,0,0.039,0c4.061-0.004,8.035-1.657,10.899-4.531 l18.629-18.668c3.057-3.064,3.052-8.026-0.011-11.083c-3.064-3.058-8.026-3.053-11.082,0.011l-18.459,18.497l-52.292-52.024 c-5.93-5.893-9.203-13.736-9.218-22.083c-0.016-8.35,3.23-16.206,9.14-22.124c5.906-5.919,13.777-9.189,22.161-9.207 c0.022,0,0.042,0,0.063,0c8.355,0,16.214,3.24,22.139,9.132l2.306,2.286c3.064,3.039,8.009,3.028,11.059-0.022l2.302-2.302 c5.91-5.919,13.78-9.188,22.163-9.203c0.022,0,0.041,0,0.063,0c8.355,0,16.214,3.239,22.134,9.125 c5.931,5.895,9.204,13.737,9.22,22.084c0.016,8.35-3.23,16.208-9.14,22.127l-9.66,9.681c-3.057,3.065-3.051,8.026,0.012,11.083 c3.064,3.057,8.025,3.052,11.083-0.011l9.659-9.68c8.87-8.885,13.741-20.685,13.72-33.228c-0.022-12.539-4.939-24.319-13.844-33.17 c-8.877-8.825-20.658-13.683-33.182-13.683c-0.031,0-0.064,0-0.094,0c-11.095,0.021-21.594,3.846-29.998,10.851 c-8.409-6.958-18.885-10.743-29.942-10.743c-0.031,0-0.064,0-0.094,0c-12.567,0.026-24.366,4.93-33.223,13.806 c-8.871,8.883-13.744,20.682-13.721,33.226c0.022,12.541,4.939,24.321,13.841,33.167L245.25,385.775z"/>
  <path d="M255.478,208.457h1.045c4.328,0,7.837-3.508,7.837-7.837c0-4.329-3.509-7.837-7.837-7.837h-1.045 c-4.328,0-7.837,3.508-7.837,7.837C247.641,204.949,251.15,208.457,255.478,208.457z"/>
  <path d="M492.646,452.048h-24.883V191.581c0-10.861-8.865-19.695-19.761-19.695H63.998c-10.896,0-19.761,8.835-19.761,19.695 v260.467H19.354c-7.202,0-13.061,5.859-13.061,13.061v33.83c0,7.202,5.859,13.061,13.061,13.061h91.406 c4.328,0,7.837-3.508,7.837-7.837s-3.509-7.837-7.837-7.837H21.966v-28.605H182.76v9.027c0,7.202,5.859,13.061,13.061,13.061h120.36 c7.201,0,13.061-5.859,13.061-13.061v-9.027h160.794v28.605H147.331c-4.328,0-7.837,3.508-7.837,7.837s3.509,7.837,7.837,7.837 h345.316c7.203,0,13.061-5.859,13.061-13.061v-33.83C505.708,457.907,499.849,452.048,492.646,452.048z M313.568,474.136H198.432 v-6.415h115.135V474.136z M59.91,452.048V191.581c0-2.217,1.834-4.022,4.088-4.022h384.004c2.254,0,4.088,1.805,4.088,4.022v260.467 H59.91z"/>
  <path style="opacity:0.1;enable-background:new    ;" d="M95.788,459.885V191.581c0-6.549,5.338-11.859,11.924-11.859H63.998 c-6.586,0-11.924,5.309-11.924,11.859v268.304H95.788z"/>
</svg>